<svg xmlns="http://www.w3.org/2000/svg" viewBox="0 0 512 512">
  <!-- 14 stripes: red base + 7 white stripes -->
  <rect width="512" height="512" fill="#CC0001"/>
  <rect y="36.571"  width="512" height="36.571" fill="#fff"/>
  <rect y="109.714" width="512" height="36.571" fill="#fff"/>
  <rect y="182.857" width="512" height="36.571" fill="#fff"/>
  <rect y="256"     width="512" height="36.571" fill="#fff"/>
  <rect y="329.143" width="512" height="36.571" fill="#fff"/>
  <rect y="402.286" width="512" height="36.571" fill="#fff"/>
  <rect y="475.429" width="512" height="36.571" fill="#fff"/>
  <!-- Blue canton -->
  <rect width="256" height="256" fill="#010066"/>
  <!-- Crescent (yellow outer − blue inner = crescent opening right) -->
  <circle cx="95"  cy="128" r="118" fill="#FFCC00"/>
  <circle cx="117" cy="111" r="97"  fill="#010066"/>
  <!-- 14-pointed star -->
  <polygon fill="#FFCC00" points="
    192,60  197,95  213,64  210,99  231,74  220,106
    245,88  226,117 251,106 224,130 251,154 226,143
    245,172 220,154 231,186 210,161 213,196 197,165
    192,200 187,165 171,196 174,161 153,186 164,154
    139,172 158,143 133,154 160,130 133,106 158,117
    139,88  164,106 153,74  174,99  171,64  187,95
  "/>
</svg>